<mxfile host="app.diagrams.net" modified="2024-07-16T06:41:06.838Z" agent="Mozilla/5.0 (Windows NT 10.0; Win64; x64) AppleWebKit/537.36 (KHTML, like Gecko) Chrome/126.0.0.0 Safari/537.36 Edg/126.0.0.0" etag="DPNA_XRBQ_HjGc1URw7s" version="24.6.5" type="device">
  <diagram name="Page-1" id="91A2L8vZQP4N7L5JP--f">
    <mxGraphModel dx="1434" dy="827" grid="1" gridSize="10" guides="1" tooltips="1" connect="1" arrows="1" fold="1" page="1" pageScale="1" pageWidth="1100" pageHeight="850" background="none" math="0" shadow="1">
      <root>
        <mxCell id="0" />
        <mxCell id="1" parent="0" />
        <mxCell id="OZZ9g6hAlIJ2NX25TWjm-1" value="" style="verticalLabelPosition=bottom;html=1;verticalAlign=top;align=center;strokeColor=default;fillColor=#00BEF2;shape=mxgraph.azure.computer;pointerEvents=1;gradientColor=default;shadow=0;textShadow=0;direction=east;flipH=0;flipV=0;" parent="1" vertex="1">
          <mxGeometry x="22" y="255" width="100" height="100" as="geometry" />
        </mxCell>
        <mxCell id="OZZ9g6hAlIJ2NX25TWjm-3" value="" style="shape=singleArrow;direction=west;whiteSpace=wrap;html=1;gradientColor=default;shadow=0;textShadow=0;flipH=0;flipV=0;strokeColor=default;" parent="1" vertex="1">
          <mxGeometry x="132" y="275" width="100" height="20" as="geometry" />
        </mxCell>
        <mxCell id="OZZ9g6hAlIJ2NX25TWjm-4" value="" style="shape=singleArrow;whiteSpace=wrap;html=1;gradientColor=default;shadow=0;textShadow=0;direction=east;flipH=0;flipV=0;strokeColor=default;" parent="1" vertex="1">
          <mxGeometry x="132" y="295" width="100" height="20" as="geometry" />
        </mxCell>
        <mxCell id="OZZ9g6hAlIJ2NX25TWjm-6" value="Pull" style="rounded=0;whiteSpace=wrap;html=1;arcSize=50;strokeColor=none;strokeWidth=1;fillColor=none;fontColor=#000000;whiteSpace=wrap;align=left;verticalAlign=middle;spacingLeft=0;fontStyle=1;fontSize=14;spacing=10;textShadow=0;labelBorderColor=none;shadow=0;direction=east;flipH=0;flipV=0;" parent="1" vertex="1">
          <mxGeometry x="157" y="255" width="40" height="20" as="geometry" />
        </mxCell>
        <mxCell id="OZZ9g6hAlIJ2NX25TWjm-7" value="Push" style="rounded=0;whiteSpace=wrap;html=1;arcSize=50;strokeColor=none;strokeWidth=1;fillColor=none;fontColor=#000000;whiteSpace=wrap;align=left;verticalAlign=middle;spacingLeft=0;fontStyle=1;fontSize=14;spacing=10;textShadow=0;shadow=0;direction=east;flipH=0;flipV=0;" parent="1" vertex="1">
          <mxGeometry x="152" y="315" width="50" height="20" as="geometry" />
        </mxCell>
        <mxCell id="OZZ9g6hAlIJ2NX25TWjm-10" value="" style="shape=ext;double=1;rounded=1;whiteSpace=wrap;html=1;shadow=0;textShadow=0;direction=east;flipH=0;flipV=0;strokeColor=default;" parent="1" vertex="1">
          <mxGeometry x="482" y="260" width="120" height="80" as="geometry" />
        </mxCell>
        <mxCell id="OZZ9g6hAlIJ2NX25TWjm-11" value="" style="image;aspect=fixed;html=1;points=[];align=right;fontSize=12;image=img/lib/azure2/general/Branch.svg;shadow=0;textShadow=0;labelPosition=left;verticalLabelPosition=top;verticalAlign=bottom;direction=east;flipH=0;flipV=0;strokeColor=default;" parent="1" vertex="1">
          <mxGeometry x="472" y="250" width="30" height="30" as="geometry" />
        </mxCell>
        <mxCell id="OZZ9g6hAlIJ2NX25TWjm-15" value="" style="verticalLabelPosition=middle;html=1;verticalAlign=middle;align=center;strokeColor=default;fillColor=#00BEF2;shape=mxgraph.azure.git_repository;shadow=0;textShadow=0;labelPosition=center;direction=east;flipH=0;flipV=0;" parent="1" vertex="1">
          <mxGeometry x="512" y="270" width="50" height="50" as="geometry" />
        </mxCell>
        <mxCell id="OZZ9g6hAlIJ2NX25TWjm-20" value="" style="shape=ext;double=1;rounded=1;whiteSpace=wrap;html=1;shadow=0;labelBorderColor=none;textShadow=0;flipH=0;glass=0;direction=east;flipV=0;strokeColor=default;" parent="1" vertex="1">
          <mxGeometry x="242" y="260" width="120" height="80" as="geometry" />
        </mxCell>
        <mxCell id="OZZ9g6hAlIJ2NX25TWjm-21" value="" style="image;aspect=fixed;html=1;points=[];align=right;fontSize=12;image=img/lib/azure2/general/Branch.svg;shadow=0;labelBorderColor=none;textShadow=0;flipH=0;labelPosition=left;verticalLabelPosition=top;verticalAlign=bottom;direction=east;flipV=0;strokeColor=default;" parent="1" vertex="1">
          <mxGeometry x="232" y="250" width="30" height="30" as="geometry" />
        </mxCell>
        <mxCell id="OZZ9g6hAlIJ2NX25TWjm-22" value="" style="verticalLabelPosition=middle;html=1;verticalAlign=middle;align=center;strokeColor=default;fillColor=#00BEF2;shape=mxgraph.azure.git_repository;shadow=0;labelBorderColor=none;textShadow=0;flipH=0;labelPosition=center;direction=east;flipV=0;" parent="1" vertex="1">
          <mxGeometry x="272" y="270" width="50" height="50" as="geometry" />
        </mxCell>
        <mxCell id="OZZ9g6hAlIJ2NX25TWjm-44" value="Sync" style="rounded=0;whiteSpace=wrap;html=1;arcSize=50;strokeColor=none;strokeWidth=1;fillColor=none;fontColor=#000000;whiteSpace=wrap;align=left;verticalAlign=middle;spacingLeft=0;fontStyle=1;fontSize=14;spacing=10;textShadow=0;labelBorderColor=none;shadow=0;direction=east;flipH=0;flipV=0;glass=0;" parent="1" vertex="1">
          <mxGeometry x="239" y="210" width="60" height="20" as="geometry" />
        </mxCell>
        <mxCell id="OZZ9g6hAlIJ2NX25TWjm-49" value="" style="shape=singleArrow;direction=west;whiteSpace=wrap;html=1;gradientColor=default;shadow=0;textShadow=0;flipH=0;flipV=0;strokeColor=default;" parent="1" vertex="1">
          <mxGeometry x="372" y="275" width="100" height="20" as="geometry" />
        </mxCell>
        <mxCell id="OZZ9g6hAlIJ2NX25TWjm-50" value="" style="shape=singleArrow;whiteSpace=wrap;html=1;gradientColor=default;shadow=0;textShadow=0;direction=east;flipH=0;flipV=0;strokeColor=default;" parent="1" vertex="1">
          <mxGeometry x="372" y="295" width="100" height="20" as="geometry" />
        </mxCell>
        <mxCell id="OZZ9g6hAlIJ2NX25TWjm-51" value="Branch" style="rounded=0;whiteSpace=wrap;html=1;arcSize=50;strokeColor=none;strokeWidth=1;fillColor=none;fontColor=#000000;whiteSpace=wrap;align=left;verticalAlign=middle;spacingLeft=0;fontStyle=1;fontSize=14;spacing=10;textShadow=0;labelBorderColor=none;shadow=0;direction=east;flipH=0;flipV=0;" parent="1" vertex="1">
          <mxGeometry x="387" y="255" width="70" height="20" as="geometry" />
        </mxCell>
        <mxCell id="OZZ9g6hAlIJ2NX25TWjm-52" value="Merge" style="rounded=0;whiteSpace=wrap;html=1;arcSize=50;strokeColor=none;strokeWidth=1;fillColor=none;fontColor=#000000;whiteSpace=wrap;align=left;verticalAlign=middle;spacingLeft=0;fontStyle=1;fontSize=14;spacing=10;textShadow=0;shadow=0;direction=east;flipH=0;flipV=0;" parent="1" vertex="1">
          <mxGeometry x="392" y="315" width="60" height="20" as="geometry" />
        </mxCell>
        <mxCell id="OZZ9g6hAlIJ2NX25TWjm-54" value="Feature" style="rounded=0;whiteSpace=wrap;html=1;arcSize=50;strokeColor=none;strokeWidth=1;fillColor=none;fontColor=#000000;whiteSpace=wrap;align=left;verticalAlign=middle;spacingLeft=0;fontStyle=1;fontSize=14;spacing=10;textShadow=0;shadow=0;direction=east;flipH=0;flipV=0;" parent="1" vertex="1">
          <mxGeometry x="272" y="355" width="60" height="20" as="geometry" />
        </mxCell>
        <mxCell id="OZZ9g6hAlIJ2NX25TWjm-55" value="Development" style="rounded=0;whiteSpace=wrap;html=1;arcSize=50;strokeColor=none;strokeWidth=1;fillColor=none;fontColor=#000000;whiteSpace=wrap;align=left;verticalAlign=middle;spacingLeft=0;fontStyle=1;fontSize=14;spacing=10;textShadow=0;shadow=0;direction=east;flipH=0;flipV=0;" parent="1" vertex="1">
          <mxGeometry x="487" y="355" width="100" height="20" as="geometry" />
        </mxCell>
        <mxCell id="OZZ9g6hAlIJ2NX25TWjm-61" value="" style="shape=singleArrow;whiteSpace=wrap;html=1;gradientColor=default;shadow=0;textShadow=0;direction=east;flipH=0;flipV=0;strokeColor=default;" parent="1" vertex="1">
          <mxGeometry x="607" y="285" width="100" height="20" as="geometry" />
        </mxCell>
        <mxCell id="OZZ9g6hAlIJ2NX25TWjm-62" value="Pull Request &amp;amp; Merge" style="rounded=0;whiteSpace=wrap;html=1;arcSize=50;strokeColor=none;strokeWidth=1;fillColor=none;fontColor=#000000;whiteSpace=wrap;align=left;verticalAlign=middle;spacingLeft=0;fontStyle=1;fontSize=14;spacing=10;textShadow=0;shadow=0;direction=east;flipH=0;flipV=0;" parent="1" vertex="1">
          <mxGeometry x="602" y="305" width="105" height="50" as="geometry" />
        </mxCell>
        <mxCell id="OZZ9g6hAlIJ2NX25TWjm-66" value="" style="shape=singleArrow;direction=north;whiteSpace=wrap;html=1;gradientColor=default;shadow=0;textShadow=0;flipH=0;flipV=0;strokeColor=default;" parent="1" vertex="1">
          <mxGeometry x="531.5" y="190" width="20" height="60" as="geometry" />
        </mxCell>
        <mxCell id="OZZ9g6hAlIJ2NX25TWjm-67" value="Update" style="rounded=0;whiteSpace=wrap;html=1;arcSize=50;strokeColor=none;strokeWidth=1;fillColor=none;fontColor=#000000;whiteSpace=wrap;align=left;verticalAlign=middle;spacingLeft=0;fontStyle=1;fontSize=14;spacing=10;textShadow=0;labelBorderColor=none;shadow=0;direction=east;flipH=0;flipV=0;" parent="1" vertex="1">
          <mxGeometry x="471.5" y="210" width="60" height="20" as="geometry" />
        </mxCell>
        <mxCell id="OZZ9g6hAlIJ2NX25TWjm-76" value="" style="image;sketch=0;aspect=fixed;html=1;points=[];align=center;fontSize=12;image=img/lib/mscae/Azure_Pipelines.svg;shadow=0;textShadow=0;direction=east;flipH=0;flipV=0;strokeColor=default;" parent="1" vertex="1">
          <mxGeometry x="551.5" y="210" width="20" height="20" as="geometry" />
        </mxCell>
        <mxCell id="OZZ9g6hAlIJ2NX25TWjm-78" value="" style="image;sketch=0;aspect=fixed;html=1;points=[];align=center;fontSize=12;image=img/lib/mscae/Azure_Pipelines.svg;shadow=0;textShadow=0;direction=east;flipH=0;flipV=0;strokeColor=default;" parent="1" vertex="1">
          <mxGeometry x="642" y="260" width="20" height="20" as="geometry" />
        </mxCell>
        <mxCell id="OZZ9g6hAlIJ2NX25TWjm-81" value="" style="shape=doubleArrow;direction=south;whiteSpace=wrap;html=1;gradientColor=default;shadow=0;textShadow=0;flipH=0;flipV=0;strokeColor=default;" parent="1" vertex="1">
          <mxGeometry x="290.5" y="190" width="20" height="60" as="geometry" />
        </mxCell>
        <mxCell id="OZZ9g6hAlIJ2NX25TWjm-87" value="" style="shape=ext;double=1;rounded=1;whiteSpace=wrap;html=1;shadow=0;textShadow=0;direction=east;flipH=0;flipV=0;strokeColor=default;" parent="1" vertex="1">
          <mxGeometry x="717" y="260" width="120" height="80" as="geometry" />
        </mxCell>
        <mxCell id="OZZ9g6hAlIJ2NX25TWjm-88" value="" style="image;aspect=fixed;html=1;points=[];align=right;fontSize=12;image=img/lib/azure2/general/Branch.svg;shadow=0;textShadow=0;labelPosition=left;verticalLabelPosition=top;verticalAlign=bottom;direction=east;flipH=0;flipV=0;strokeColor=default;" parent="1" vertex="1">
          <mxGeometry x="707" y="250" width="30" height="30" as="geometry" />
        </mxCell>
        <mxCell id="OZZ9g6hAlIJ2NX25TWjm-89" value="" style="verticalLabelPosition=middle;html=1;verticalAlign=middle;align=center;strokeColor=default;fillColor=#00BEF2;shape=mxgraph.azure.git_repository;shadow=0;textShadow=0;labelPosition=center;direction=east;flipH=0;flipV=0;" parent="1" vertex="1">
          <mxGeometry x="747" y="270" width="50" height="50" as="geometry" />
        </mxCell>
        <mxCell id="OZZ9g6hAlIJ2NX25TWjm-90" value="Test" style="rounded=1;whiteSpace=wrap;html=1;arcSize=50;strokeColor=none;strokeWidth=1;fillColor=none;fontColor=#000000;whiteSpace=wrap;align=left;verticalAlign=middle;spacingLeft=0;fontStyle=1;fontSize=14;spacing=10;textShadow=0;shadow=0;direction=east;flipH=0;flipV=0;" parent="1" vertex="1">
          <mxGeometry x="752" y="355" width="50" height="20" as="geometry" />
        </mxCell>
        <mxCell id="OZZ9g6hAlIJ2NX25TWjm-91" value="" style="shape=singleArrow;whiteSpace=wrap;html=1;gradientColor=default;shadow=0;textShadow=0;direction=east;flipH=0;flipV=0;strokeColor=default;" parent="1" vertex="1">
          <mxGeometry x="842" y="285" width="100" height="20" as="geometry" />
        </mxCell>
        <mxCell id="OZZ9g6hAlIJ2NX25TWjm-92" value="Pull Request &amp;amp; Merge" style="rounded=0;whiteSpace=wrap;html=1;arcSize=50;strokeColor=none;strokeWidth=1;fillColor=none;fontColor=#000000;whiteSpace=wrap;align=left;verticalAlign=middle;spacingLeft=0;fontStyle=1;fontSize=14;spacing=10;textShadow=0;shadow=0;direction=east;flipH=0;flipV=0;" parent="1" vertex="1">
          <mxGeometry x="837" y="305" width="105" height="50" as="geometry" />
        </mxCell>
        <mxCell id="OZZ9g6hAlIJ2NX25TWjm-93" value="" style="shape=singleArrow;direction=north;whiteSpace=wrap;html=1;gradientColor=default;shadow=0;textShadow=0;flipH=0;flipV=0;strokeColor=default;" parent="1" vertex="1">
          <mxGeometry x="766.5" y="190" width="20" height="60" as="geometry" />
        </mxCell>
        <mxCell id="OZZ9g6hAlIJ2NX25TWjm-94" value="Update" style="rounded=0;whiteSpace=wrap;html=1;arcSize=50;strokeColor=none;strokeWidth=1;fillColor=none;fontColor=#000000;whiteSpace=wrap;align=left;verticalAlign=middle;spacingLeft=0;fontStyle=1;fontSize=14;spacing=10;textShadow=0;labelBorderColor=none;shadow=0;direction=east;flipH=0;flipV=0;" parent="1" vertex="1">
          <mxGeometry x="711.5" y="210" width="60" height="20" as="geometry" />
        </mxCell>
        <mxCell id="OZZ9g6hAlIJ2NX25TWjm-95" value="" style="image;sketch=0;aspect=fixed;html=1;points=[];align=center;fontSize=12;image=img/lib/mscae/Azure_Pipelines.svg;shadow=0;textShadow=0;direction=east;flipH=0;flipV=0;strokeColor=default;" parent="1" vertex="1">
          <mxGeometry x="791.5" y="210" width="20" height="20" as="geometry" />
        </mxCell>
        <mxCell id="OZZ9g6hAlIJ2NX25TWjm-96" value="" style="image;sketch=0;aspect=fixed;html=1;points=[];align=center;fontSize=12;image=img/lib/mscae/Azure_Pipelines.svg;shadow=0;textShadow=0;direction=east;flipH=0;flipV=0;strokeColor=default;" parent="1" vertex="1">
          <mxGeometry x="877" y="260" width="20" height="20" as="geometry" />
        </mxCell>
        <mxCell id="OZZ9g6hAlIJ2NX25TWjm-97" value="" style="shape=ext;double=1;rounded=1;whiteSpace=wrap;html=1;shadow=0;textShadow=1;direction=east;flipH=0;flipV=0;strokeColor=default;" parent="1" vertex="1">
          <mxGeometry x="957" y="260" width="120" height="80" as="geometry" />
        </mxCell>
        <mxCell id="OZZ9g6hAlIJ2NX25TWjm-98" value="" style="image;aspect=fixed;html=1;points=[];align=right;fontSize=12;image=img/lib/azure2/general/Branch.svg;shadow=0;textShadow=0;labelPosition=left;verticalLabelPosition=top;verticalAlign=bottom;direction=east;flipH=0;flipV=0;strokeColor=default;" parent="1" vertex="1">
          <mxGeometry x="947" y="250" width="30" height="30" as="geometry" />
        </mxCell>
        <mxCell id="OZZ9g6hAlIJ2NX25TWjm-99" value="" style="verticalLabelPosition=middle;html=1;verticalAlign=middle;align=center;strokeColor=default;fillColor=#00BEF2;shape=mxgraph.azure.git_repository;shadow=0;textShadow=0;labelPosition=center;direction=east;flipH=0;flipV=0;" parent="1" vertex="1">
          <mxGeometry x="987" y="270" width="50" height="50" as="geometry" />
        </mxCell>
        <mxCell id="OZZ9g6hAlIJ2NX25TWjm-100" value="Production" style="rounded=0;whiteSpace=wrap;html=1;arcSize=50;strokeColor=none;strokeWidth=1;fillColor=none;fontColor=#000000;whiteSpace=wrap;align=left;verticalAlign=middle;spacingLeft=0;fontStyle=1;fontSize=14;spacing=10;textShadow=0;shadow=0;direction=east;flipH=0;flipV=0;" parent="1" vertex="1">
          <mxGeometry x="962" y="355" width="110" height="20" as="geometry" />
        </mxCell>
        <mxCell id="OZZ9g6hAlIJ2NX25TWjm-103" value="" style="shape=singleArrow;direction=north;whiteSpace=wrap;html=1;gradientColor=default;shadow=0;textShadow=0;flipH=0;flipV=0;strokeColor=default;" parent="1" vertex="1">
          <mxGeometry x="1012.5" y="190" width="20" height="60" as="geometry" />
        </mxCell>
        <mxCell id="OZZ9g6hAlIJ2NX25TWjm-104" value="Update" style="rounded=0;whiteSpace=wrap;html=1;arcSize=50;strokeColor=none;strokeWidth=1;fillColor=none;fontColor=#000000;whiteSpace=wrap;align=left;verticalAlign=middle;spacingLeft=0;fontStyle=1;fontSize=14;spacing=10;textShadow=0;labelBorderColor=none;shadow=0;direction=east;flipH=0;flipV=0;" parent="1" vertex="1">
          <mxGeometry x="952.5" y="210" width="60" height="20" as="geometry" />
        </mxCell>
        <mxCell id="OZZ9g6hAlIJ2NX25TWjm-105" value="" style="image;sketch=0;aspect=fixed;html=1;points=[];align=center;fontSize=12;image=img/lib/mscae/Azure_Pipelines.svg;shadow=0;textShadow=0;direction=east;flipH=0;flipV=0;strokeColor=default;" parent="1" vertex="1">
          <mxGeometry x="1032.5" y="210" width="20" height="20" as="geometry" />
        </mxCell>
        <mxCell id="OZZ9g6hAlIJ2NX25TWjm-111" value="" style="shape=ext;double=1;rounded=1;whiteSpace=wrap;html=1;shadow=0;labelBorderColor=none;textShadow=0;flipH=0;glass=0;direction=east;flipV=0;strokeColor=#36393d;fillColor=#eeeeee;gradientColor=none;" parent="1" vertex="1">
          <mxGeometry x="239" y="30" width="120" height="150" as="geometry" />
        </mxCell>
        <mxCell id="OZZ9g6hAlIJ2NX25TWjm-110" value="" style="shape=image;verticalLabelPosition=bottom;verticalAlign=top;imageAspect=0;image=https://www.brasoftware.com.br/Marketing/Microsoft/2023/ebook/fabric/img/icon-microsoft-fabric.png;shadow=0;textShadow=1;" parent="1" vertex="1">
          <mxGeometry x="189" y="10" width="75" height="75" as="geometry" />
        </mxCell>
        <mxCell id="OZZ9g6hAlIJ2NX25TWjm-112" value="" style="image;aspect=fixed;html=1;points=[];align=center;fontSize=12;image=img/lib/azure2/compute/Workspaces.svg;shadow=0;textShadow=0;" parent="1" vertex="1">
          <mxGeometry x="266.5" y="77" width="65" height="56.00000000000001" as="geometry" />
        </mxCell>
        <mxCell id="OZZ9g6hAlIJ2NX25TWjm-126" value="Feature Workspaces" style="rounded=1;whiteSpace=wrap;html=1;arcSize=50;strokeColor=none;strokeWidth=1;fillColor=none;fontColor=#000000;whiteSpace=wrap;align=left;verticalAlign=middle;spacingLeft=0;fontStyle=1;fontSize=10;spacing=10;textShadow=0;shadow=0;direction=east;flipH=0;flipV=0;" parent="1" vertex="1">
          <mxGeometry x="240.5" y="133" width="120" height="27" as="geometry" />
        </mxCell>
        <mxCell id="OZZ9g6hAlIJ2NX25TWjm-129" value="" style="shape=ext;double=1;rounded=1;whiteSpace=wrap;html=1;shadow=0;labelBorderColor=none;textShadow=0;flipH=0;glass=0;direction=east;flipV=0;strokeColor=#36393d;fillColor=#eeeeee;" parent="1" vertex="1">
          <mxGeometry x="479" y="30" width="120" height="150" as="geometry" />
        </mxCell>
        <mxCell id="OZZ9g6hAlIJ2NX25TWjm-130" value="" style="shape=image;verticalLabelPosition=bottom;verticalAlign=top;imageAspect=0;image=https://www.brasoftware.com.br/Marketing/Microsoft/2023/ebook/fabric/img/icon-microsoft-fabric.png;shadow=0;textShadow=1;" parent="1" vertex="1">
          <mxGeometry x="429" y="10" width="75" height="75" as="geometry" />
        </mxCell>
        <mxCell id="OZZ9g6hAlIJ2NX25TWjm-131" value="" style="image;aspect=fixed;html=1;points=[];align=center;fontSize=12;image=img/lib/azure2/compute/Workspaces.svg;shadow=0;textShadow=0;" parent="1" vertex="1">
          <mxGeometry x="506.5" y="77" width="65" height="56.00000000000001" as="geometry" />
        </mxCell>
        <mxCell id="OZZ9g6hAlIJ2NX25TWjm-132" value="Dev Workspace" style="rounded=1;whiteSpace=wrap;html=1;arcSize=50;strokeColor=none;strokeWidth=1;fillColor=none;fontColor=#000000;whiteSpace=wrap;align=left;verticalAlign=middle;spacingLeft=0;fontStyle=1;fontSize=10;spacing=10;textShadow=0;shadow=0;direction=east;flipH=0;flipV=0;" parent="1" vertex="1">
          <mxGeometry x="489" y="133" width="110" height="27" as="geometry" />
        </mxCell>
        <mxCell id="OZZ9g6hAlIJ2NX25TWjm-133" value="" style="shape=ext;double=1;rounded=1;whiteSpace=wrap;html=1;shadow=0;labelBorderColor=none;textShadow=0;flipH=0;glass=0;direction=east;flipV=0;strokeColor=#36393d;fillColor=#eeeeee;" parent="1" vertex="1">
          <mxGeometry x="719" y="30" width="120" height="150" as="geometry" />
        </mxCell>
        <mxCell id="OZZ9g6hAlIJ2NX25TWjm-135" value="" style="image;aspect=fixed;html=1;points=[];align=center;fontSize=12;image=img/lib/azure2/compute/Workspaces.svg;shadow=0;textShadow=0;" parent="1" vertex="1">
          <mxGeometry x="746.5" y="77" width="65" height="56.00000000000001" as="geometry" />
        </mxCell>
        <mxCell id="OZZ9g6hAlIJ2NX25TWjm-136" value="Test Workspace" style="rounded=1;whiteSpace=wrap;html=1;arcSize=50;strokeColor=none;strokeWidth=1;fillColor=none;fontColor=#000000;whiteSpace=wrap;align=left;verticalAlign=middle;spacingLeft=0;fontStyle=1;fontSize=10;spacing=10;textShadow=0;shadow=0;direction=east;flipH=0;flipV=0;" parent="1" vertex="1">
          <mxGeometry x="732" y="133" width="97" height="27" as="geometry" />
        </mxCell>
        <mxCell id="OZZ9g6hAlIJ2NX25TWjm-137" value="" style="shape=ext;double=1;rounded=1;whiteSpace=wrap;html=1;shadow=0;labelBorderColor=none;textShadow=1;flipH=0;glass=0;direction=east;flipV=0;strokeColor=#36393d;fillColor=#eeeeee;" parent="1" vertex="1">
          <mxGeometry x="961" y="30" width="118" height="150" as="geometry" />
        </mxCell>
        <mxCell id="OZZ9g6hAlIJ2NX25TWjm-139" value="" style="image;aspect=fixed;html=1;points=[];align=center;fontSize=12;image=img/lib/azure2/compute/Workspaces.svg;shadow=0;textShadow=0;" parent="1" vertex="1">
          <mxGeometry x="987.5" y="77" width="65" height="56.00000000000001" as="geometry" />
        </mxCell>
        <mxCell id="OZZ9g6hAlIJ2NX25TWjm-140" value="Prod Workspace" style="rounded=1;whiteSpace=wrap;html=1;arcSize=50;strokeColor=none;strokeWidth=1;fillColor=none;fontColor=#000000;whiteSpace=wrap;align=left;verticalAlign=middle;spacingLeft=0;fontStyle=1;fontSize=10;spacing=10;textShadow=0;shadow=0;direction=east;flipH=0;flipV=0;" parent="1" vertex="1">
          <mxGeometry x="972" y="133" width="97" height="27" as="geometry" />
        </mxCell>
      </root>
    </mxGraphModel>
  </diagram>
</mxfile>
